<svg id="visual" viewBox="0 0 960 540" width="960" height="540" xmlns="http://www.w3.org/2000/svg" xmlns:xlink="http://www.w3.org/1999/xlink" version="1.1"><rect x="0" y="0" width="960" height="540" fill="#fff"></rect><g transform="translate(105.96026997007206 473.7800438576415)"><path d="M246.8 -408.8C281.4 -361.9 244.3 -228.3 235.8 -139.3C227.2 -50.3 247.2 -5.9 270 59.5C292.8 124.9 318.3 211.4 302.3 302.2C286.3 392.9 228.7 487.9 144 531.6C59.3 575.4 -52.6 567.9 -157.5 536.9C-262.3 505.8 -360.2 451.3 -424.1 371.1C-488.1 290.8 -518.2 184.8 -519.2 83.4C-520.2 -18.1 -492.1 -115 -425.4 -166.5C-358.7 -218.1 -253.4 -224.3 -176.1 -251.6C-98.8 -279 -49.4 -327.5 28.4 -371.7C106.1 -415.8 212.3 -455.7 246.8 -408.8" fill="#00b0e9"></path></g></svg>
